/* XPM */
static char * gtklick_xpm[] = {
"32 32 85 1",
" 	c None",
".	c #F9F9F9",
"+	c #BCBCBC",
"@	c #B7B7B7",
"#	c #B0B0B0",
"$	c #FFFFFF",
"%	c #666666",
"&	c #000000",
"*	c #F0F0F0",
"=	c #555555",
"-	c #090909",
";	c #777777",
">	c #989898",
",	c #A0A0A0",
"'	c #A9A9A9",
")	c #010101",
"!	c #373737",
"~	c #FAFAFA",
"{	c #181818",
"]	c #686868",
"^	c #D4D4D4",
"/	c #757575",
"(	c #EBEBEB",
"_	c #282828",
":	c #747474",
"<	c #050505",
"[	c #272727",
"}	c #383838",
"|	c #7D7D7D",
"1	c #525252",
"2	c #999999",
"3	c #393939",
"4	c #EEEEEE",
"5	c #0A0A0A",
"6	c #CECECE",
"7	c #0C0C0C",
"8	c #5C5C5C",
"9	c #717171",
"0	c #BDBDBD",
"a	c #2C2C2C",
"b	c #FCFCFC",
"c	c #202020",
"d	c #CACACA",
"e	c #020202",
"f	c #808080",
"g	c #696969",
"h	c #9A9A9A",
"i	c #DDDDDD",
"j	c #F7F7F7",
"k	c #101010",
"l	c #636363",
"m	c #434343",
"n	c #A6A6A6",
"o	c #E9E9E9",
"p	c #232323",
"q	c #A4A4A4",
"r	c #454545",
"s	c #B8B8B8",
"t	c #030303",
"u	c #F4F4F4",
"v	c #0F0F0F",
"w	c #E1E1E1",
"x	c #767676",
"y	c #676767",
"z	c #828282",
"A	c #333333",
"B	c #C6C6C6",
"C	c #FEFEFE",
"D	c #222222",
"E	c #C8C8C8",
"F	c #2A2A2A",
"G	c #C0C0C0",
"H	c #8C8C8C",
"I	c #5E5E5E",
"J	c #E4E4E4",
"K	c #040404",
"L	c #F1F1F1",
"M	c #0B0B0B",
"N	c #4E4E4E",
"O	c #9C9C9C",
"P	c #AFAFAF",
"Q	c #3A3A3A",
"R	c #909090",
"S	c #8B8B8B",
"T	c #DFDFDF",
"                                ",
"                                ",
"            .+@@@@#             ",
"           $%&&&&&&&            ",
"   *=      *-&&&&&&&&           ",
"  $;&&    $>&&    ,&&           ",
"   ')&&   $!&&    ~{&&          ",
"    ]&&   ^&&      /&&          ",
"    (_&& $:&&      ^&&          ",
"     +<&[.{&&      $}&&         ",
"      |&&1&&        2&&         ",
"       3&&&&        45&&        ",
"       67&&&         8&&        ",
"       $9&&&         0&&        ",
"       $a&&&         bc&&       ",
"      $d&&e&&         f&&       ",
"      $g&&h&&&        ie&       ",
"      jk&& l&&        $m&&      ",
"     $n&&  op&&        q&&      ",
"     $r&&   st&&       uv&&     ",
"     we&     x&&        y&&     ",
"    $z&&      A&&       B&&     ",
"    CD&&      E-&&      $F&&    ",
"   $G&&        z&&       H&&    ",
"   $I&&                  JK&    ",
"   LM&&                  $N&&   ",
"  $O&&                    P&&   ",
"  $Q&vRRRRRRRRRRRRRRRRRRRRSe&&  ",
"  T&&&&&&&&&&&&&&&&&&&&&&&&&&&  ",
"   &&&&&&&&&&&&&&&&&&&&&&&&&&&  ",
"                                ",
"                                "};
