/* XPM */
static char * gtklick_xpm[] = {
"32 32 171 2",
"  	c None",
". 	c #00FF00",
"+ 	c #003E00",
"@ 	c #01FF00",
"# 	c #004800",
"$ 	c #0DFF0D",
"% 	c #056505",
"& 	c #1EFF1E",
"* 	c #0F830F",
"= 	c #31FF31",
"- 	c #2FFF2F",
"; 	c #1D9F1D",
"> 	c #000000",
", 	c #40FF41",
"' 	c #40FF40",
") 	c #196219",
"! 	c #2FB82F",
"~ 	c #52FF51",
"{ 	c #51FF51",
"] 	c #216621",
"^ 	c #52FF52",
"/ 	c #4CF14C",
"( 	c #4EF64E",
"_ 	c #43D343",
": 	c #62FF62",
"< 	c #358835",
"[ 	c #4DC94D",
"} 	c #56E056",
"| 	c #5BEC5B",
"1 	c #63FF63",
"2 	c #74FF74",
"3 	c #4DA94D",
"4 	c #479E47",
"5 	c #5AC75A",
"6 	c #73FD73",
"7 	c #040904",
"8 	c #152D15",
"9 	c #85FF85",
"0 	c #68C768",
"a 	c #396F39",
"b 	c #5AAE5A",
"c 	c #152815",
"d 	c #2C542C",
"e 	c #96FF96",
"f 	c #92FA92",
"g 	c #87E587",
"h 	c #254025",
"i 	c #569256",
"j 	c #2A482A",
"k 	c #497C49",
"l 	c #9CFF9C",
"m 	c #98F798",
"n 	c #7CCA7C",
"o 	c #9BFC9B",
"p 	c #040604",
"q 	c #9BFD9B",
"r 	c #090E09",
"s 	c #4E804F",
"t 	c #3E653D",
"u 	c #62A062",
"v 	c #8CFF8C",
"w 	c #72D072",
"x 	c #5CA75C",
"y 	c #172A17",
"z 	c #7BDF7B",
"A 	c #4A864A",
"B 	c #478247",
"C 	c #8BFF8B",
"D 	c #6BC46B",
"E 	c #7BFF7B",
"F 	c #50A54F",
"G 	c #428842",
"H 	c #254D25",
"I 	c #58B758",
"J 	c #4C9F4C",
"K 	c #7AFF7A",
"L 	c #77F677",
"M 	c #73EE73",
"N 	c #6EE56E",
"O 	c #68FF68",
"P 	c #69FF69",
"Q 	c #6AFF6A",
"R 	c #317631",
"S 	c #2A652A",
"T 	c #2F712F",
"U 	c #2B682B",
"V 	c #3A8B3A",
"W 	c #4BB64B",
"X 	c #58D358",
"Y 	c #55CC55",
"Z 	c #69FD69",
"` 	c #040B04",
" .	c #5FEA5F",
"..	c #52E951",
"+.	c #52E952",
"@.	c #4FE04E",
"#.	c #102C10",
"$.	c #194719",
"%.	c #58FF58",
"&.	c #329232",
"*.	c #2D842D",
"=.	c #205C20",
"-.	c #49D249",
";.	c #3BAA3B",
">.	c #3BAB3B",
",.	c #216221",
"'.	c #55F555",
").	c #51E952",
"!.	c #51E951",
"~.	c #0E310E",
"{.	c #47FF47",
"].	c #31B231",
"^.	c #31AF31",
"/.	c #0C290C",
"(.	c #41EA41",
"_.	c #237E23",
":.	c #268826",
"<.	c #3CD83C",
"[.	c #1B601B",
"}.	c #36FF36",
"|.	c #2CD02C",
"1.	c #2ED82E",
"2.	c #34F534",
"3.	c #010301",
"4.	c #36FC35",
"5.	c #010701",
"6.	c #2CD22C",
"7.	c #115111",
"8.	c #166516",
"9.	c #35F634",
"0.	c #030D03",
"a.	c #25FF25",
"b.	c #22EF22",
"c.	c #24FB24",
"d.	c #1ECE1E",
"e.	c #052605",
"f.	c #1DC91D",
"g.	c #051E05",
"h.	c #0C4F0C",
"i.	c #1BB51B",
"j.	c #14FF14",
"k.	c #0DA40D",
"l.	c #054505",
"m.	c #12E812",
"n.	c #13EE13",
"o.	c #000100",
"p.	c #086008",
"q.	c #04FF04",
"r.	c #027802",
"s.	c #017501",
"t.	c #04FE04",
"u.	c #03C803",
"v.	c #04F604",
"w.	c #000D00",
"x.	c #004700",
"y.	c #00BC00",
"z.	c #009E00",
"A.	c #007200",
"B.	c #00FE00",
"C.	c #001400",
"D.	c #00F800",
"E.	c #00E600",
"F.	c #004300",
"G.	c #00BA00",
"H.	c #00FD00",
"I.	c #001200",
"J.	c #002700",
"K.	c #009300",
"L.	c #006600",
"M.	c #00DD00",
"N.	c #001500",
"                          .                                     ",
"                        . . +                                   ",
"                        @ . #                                   ",
"                        $ $ %                                   ",
"                        & & *                                   ",
"            =           - - ; >                                 ",
"          , ' )       , ' ' ! >                                 ",
"          ~ { ]       ^ / ( _ >                                 ",
"          : : <       : [ } | >       1 1                       ",
"          2 2 3 >     2 4 5 6 7       2 2 8                     ",
"          9 9 0 >     9 a b 9 c       9 9 d                     ",
"        e e f g >   e e h i e j       e e k                     ",
"        l m n o p   l q r s l t       l l u >                   ",
"        v w x v y   v z > A v B     C v v D >                   ",
"        E F G E H   E I >   E J >   K L M N >                   ",
"O O O P Q R S Q T U Q V >   Q W >   P X Y Z `  .O O O O O O O O ",
"..+.+.+.@.#.$.%.&.*.%.=.>   %.-.>   %.;.>.%.,.%.'.).!.).+.+.).+.",
"> > > > > > ~.{.].^.{./.>   {.(.>   {._.:.{.<.{.[.> > > > > > > ",
"              }.|.1.2.3.    }.4.5.6.}.7.8.}.}.9.0.>             ",
"              a.b.c.d.>     a.a.e.f.a.g.h.a.a.i.>               ",
"              j.j.j.k.>     j.j.l.m.n.o.  j.j.p.>               ",
"              q.q.q.r.>       q.s.t.u.>   q.v.w.>               ",
"                . . x.>       . y.. z.>     A.>                 ",
"                . B.C.        . D.. A.>       >                 ",
"                . E.>         . . . F.>                         ",
"                . G.>         . . H.I.                          ",
"                  J.>         . . E.>                           ",
"                              . . y.>                           ",
"                              . . K.>                           ",
"                              . . L.>                           ",
"                                M.N.>                           ",
"                                  >                             "};
